<?xml version="1.0" standalone="no"?>
<!DOCTYPE svg PUBLIC "-//W3C//DTD SVG 20010904//EN"
 "http://www.w3.org/TR/2001/REC-SVG-20010904/DTD/svg10.dtd">
<svg version="1.0" xmlns="http://www.w3.org/2000/svg"
 width="496.000000pt" height="496.000000pt" viewBox="0 0 496.000000 496.000000"
 preserveAspectRatio="xMidYMid meet">
<metadata>
Created by potrace 1.16, written by Peter Selinger 2001-2019
</metadata>
<g transform="translate(0.000000,496.000000) scale(0.100000,-0.100000)"
fill="#000000" stroke="none">
<path d="M0 2480 l0 -2480 245 0 245 0 0 500 0 500 250 0 250 0 0 -500 0 -500
1485 0 1485 0 0 500 0 500 250 0 250 0 0 -500 0 -500 250 0 250 0 0 2480 0
2480 -2480 0 -2480 0 0 -2480z m3960 1740 l0 -250 -245 0 -245 0 0 -495 0
-495 -250 0 -250 0 0 -250 0 -250 745 0 745 0 0 -495 0 -495 -250 0 -250 0 0
-245 0 -245 -245 0 -245 0 0 245 0 245 -250 0 -250 0 0 -245 0 -245 -495 0
-495 0 0 245 0 245 -250 0 -250 0 0 -245 0 -245 -245 0 -245 0 0 245 0 245
-250 0 -250 0 0 495 0 495 745 0 745 0 0 250 0 250 -250 0 -250 0 0 495 0 495
-245 0 -245 0 0 250 0 250 1485 0 1485 0 0 -250z"/>
<path d="M1980 1985 l0 -495 495 0 495 0 0 495 0 495 -495 0 -495 0 0 -495z"/>
</g>
</svg>
