<svg width="512" height="512" viewBox="0 0 512 512" fill="none" xmlns="http://www.w3.org/2000/svg">
<path d="M27.972 376.154L12.019 376.079C12.012 376.079 12.006 376.079 11.999 376.079C9.799 376.079 8.01 377.857 7.999 380.06C7.989 382.269 9.771 384.068 11.98 384.079L27.933 384.154C27.94 384.154 27.946 384.154 27.953 384.154C30.153 384.154 31.942 382.376 31.953 380.173C31.963 377.964 30.181 376.165 27.972 376.154ZM11.981 336.079L27.934 336.154C27.941 336.154 27.947 336.154 27.954 336.154C30.154 336.154 31.943 334.376 31.954 332.173C31.964 329.964 30.182 328.165 27.973 328.154L12.02 328.079C12.013 328.079 12.007 328.079 12 328.079C9.8 328.079 8.011 329.857 8 332.06C7.99 334.27 9.772 336.068 11.981 336.079Z" fill="url(#paint0_linear_22_2)"/>
<path d="M500 245.975H383.582V230.192L460.05 230.185C462.26 230.185 464.05 228.395 464.05 226.185C464.05 223.975 462.26 222.185 460.05 222.185L383.582 222.192V27.045C383.582 16.674 375.166 8.258 364.795 8.258H122.421C117.855 8.258 113.652 9.885 110.398 12.606C107.933 14.659 106.002 17.342 104.848 20.403C104.058 22.467 103.634 24.702 103.634 27.046V328.156H51.95C49.75 328.156 47.95 329.946 47.95 332.156C47.95 334.366 49.74 336.156 51.95 336.156H103.634V351.946H12C9.79 351.946 8 353.736 8 355.946C8 358.156 9.79 359.946 12 359.946H103.634V376.076H51.95C49.75 376.076 47.95 377.876 47.95 380.076C47.95 382.286 49.75 384.076 51.95 384.076H103.634V484.956C103.634 495.327 112.05 503.743 122.421 503.743H364.795C375.166 503.743 383.582 495.327 383.582 484.956V278.104H460.05C462.26 278.104 464.05 276.314 464.05 274.104C464.05 271.894 462.26 270.104 460.05 270.104H383.582V253.974H500C502.21 253.974 504 252.184 504 249.974C504 247.764 502.21 245.975 500 245.975ZM368.386 245.975H342.82C342.43 240.625 341.62 235.355 340.39 230.196L368.386 230.194V245.975ZM267.586 24.247H283.586C285.795 24.247 287.586 26.038 287.586 28.247C287.586 30.456 285.795 32.247 283.586 32.247H267.586C265.377 32.247 263.586 30.456 263.586 28.247C263.586 26.038 265.377 24.247 267.586 24.247ZM203.586 24.247H243.586C245.795 24.247 247.586 26.038 247.586 28.247C247.586 30.456 245.795 32.247 243.586 32.247H203.586C201.377 32.247 199.586 30.456 199.586 28.247C199.586 26.038 201.377 24.247 203.586 24.247ZM243.608 484.312C238.242 484.312 233.893 479.961 233.893 474.596C233.893 469.231 238.243 464.881 243.608 464.881C248.973 464.881 253.323 469.231 253.323 474.596C253.323 479.961 248.974 484.312 243.608 484.312ZM368.386 441.773C368.386 445.353 365.486 448.244 361.916 448.244H126.855C123.285 448.244 120.385 445.353 120.385 441.773V62.714C120.385 59.144 123.285 56.244 126.855 56.244H361.916C365.485 56.244 368.386 59.143 368.386 62.714V222.193L338.14 222.196C335.13 213.025 330.77 204.296 325.14 196.256C313.67 179.876 297.78 167.446 279.19 160.316C277.12 159.526 274.81 160.556 274.02 162.617C273.23 164.686 274.26 166.997 276.32 167.787C293.421 174.347 308.041 185.776 318.591 200.847C324.231 208.917 328.49 217.727 331.261 226.997C331.271 227.017 331.281 227.047 331.281 227.077C331.342 227.237 331.382 227.407 331.431 227.577C333.841 235.837 335.081 244.467 335.081 253.257C335.081 303.717 294.03 344.757 243.571 344.757C193.121 344.757 152.071 303.717 152.071 253.257C152.071 216.397 174.011 183.307 207.961 168.947C209.991 168.087 210.941 165.737 210.081 163.697C209.221 161.667 206.871 160.717 204.841 161.577C167.921 177.186 144.071 213.177 144.071 253.257C144.071 308.127 188.711 352.757 243.571 352.757C289.861 352.757 328.87 320.987 339.941 278.107H368.387V441.773H368.386ZM368.386 270.104H341.64C342.55 264.854 343.04 259.474 343.07 253.974H368.386V270.104V270.104Z" fill="url(#paint1_linear_22_2)"/>
<path d="M500 270.108C499.994 270.108 499.987 270.108 499.981 270.108L484.028 270.182C481.819 270.193 480.037 271.992 480.047 274.201C480.059 276.404 481.846 278.182 484.047 278.182C484.053 278.182 484.06 278.182 484.066 278.182L500.019 278.108C502.228 278.097 504.01 276.298 504 274.089C503.989 271.887 502.201 270.108 500 270.108ZM484.047 230.183C484.053 230.183 484.06 230.183 484.066 230.183L500.019 230.109C502.228 230.098 504.01 228.299 504 226.09C503.989 223.887 502.201 222.109 500 222.109C499.994 222.109 499.987 222.109 499.981 222.109L484.028 222.183C481.819 222.194 480.037 223.993 480.047 226.202C480.059 228.404 481.846 230.183 484.047 230.183ZM238.659 190.516C239.425 191.282 240.448 191.688 241.489 191.688C242.004 191.688 242.524 191.588 243.019 191.383C244.514 190.764 245.488 189.306 245.488 187.688V179.139C285.498 180.162 317.735 213.003 317.735 253.255C317.735 294.15 284.465 327.419 243.571 327.419C202.677 327.419 169.407 294.149 169.407 253.255C169.407 241.491 172.079 230.243 177.35 219.824C178.347 217.852 177.558 215.446 175.586 214.449C173.611 213.449 171.208 214.241 170.211 216.213C164.369 227.762 161.407 240.225 161.407 253.255C161.407 298.561 198.266 335.419 243.571 335.419C288.877 335.419 325.735 298.561 325.735 253.255C325.735 208.592 289.909 172.164 245.488 171.139V162.493C245.488 160.875 244.513 159.417 243.019 158.798C241.524 158.178 239.804 158.52 238.66 159.665L226.062 172.262C225.312 173.012 224.89 174.03 224.89 175.09C224.89 176.15 225.311 177.168 226.061 177.918L238.659 190.516Z" fill="url(#paint2_linear_22_2)"/>
<path d="M244.223 274.667C238.898 274.667 235.361 271.786 234.355 267.094H221.156C221.861 275.988 227.909 282.351 238.365 283.964V295.535H249.474V283.953C259.384 282.451 266.053 276.768 266.053 266.394C266.053 256.733 260.872 251.248 247.463 247.414C237.795 244.611 235.722 242.86 235.722 238.973C235.722 236.162 237.405 232.871 242.949 232.872C249.777 232.872 250.861 236.954 251.464 239.46H264.67C264.031 232.148 259.869 225.321 248.795 223.59V213.493H237.76V223.655C229.106 225.286 222.389 231.01 222.389 240.299C222.389 248.853 226.868 254.528 242.142 259.023C250.453 261.455 252.787 263.585 252.787 267.985C252.788 271.494 250.816 274.667 244.223 274.667Z" fill="url(#paint3_linear_22_2)"/>
<defs>
<linearGradient id="paint0_linear_22_2" x1="19.9765" y1="328.079" x2="19.9765" y2="384.154" gradientUnits="userSpaceOnUse">
<stop stop-color="#BD00FF"/>
<stop offset="1" stop-color="#FF73E9" stop-opacity="0"/>
</linearGradient>
<linearGradient id="paint1_linear_22_2" x1="256" y1="8.258" x2="256" y2="503.743" gradientUnits="userSpaceOnUse">
<stop stop-color="#BD00FF"/>
<stop offset="1" stop-color="#FF73E9" stop-opacity="0"/>
</linearGradient>
<linearGradient id="paint2_linear_22_2" x1="332.704" y1="158.493" x2="332.704" y2="335.419" gradientUnits="userSpaceOnUse">
<stop stop-color="#BD00FF"/>
<stop offset="1" stop-color="#FF73E9" stop-opacity="0"/>
</linearGradient>
<linearGradient id="paint3_linear_22_2" x1="243.605" y1="213.493" x2="243.605" y2="295.535" gradientUnits="userSpaceOnUse">
<stop stop-color="#BD00FF"/>
<stop offset="1" stop-color="#FF73E9" stop-opacity="0"/>
</linearGradient>
</defs>
</svg>
