<svg width="80" height="70" viewBox="0 0 80 70" fill="none" xmlns="http://www.w3.org/2000/svg">
<path d="M78.8928 47.6608L55.0063 4.53491C54.2188 3.1616 53.0779 2.01873 51.6993 1.22229C50.3207 0.425855 48.7536 0.0042071 47.1569 0.000146104H33.2744C32.735 -0.00507916 32.2037 0.129938 31.7337 0.39167C31.2637 0.653402 30.8715 1.03266 30.5964 1.49144C30.3262 1.95411 30.184 2.47894 30.184 3.01318C30.184 3.54742 30.3262 4.07225 30.5964 4.53491L66.7341 68.4477C67.0013 68.9178 67.3901 69.3093 67.8607 69.582C68.3312 69.8548 68.8666 69.999 69.4121 69.9999C69.9627 70.0044 70.5045 69.8628 70.981 69.5897C71.4574 69.3167 71.851 68.9224 72.1209 68.4477L78.9236 56.2739C79.6356 54.9465 80.0053 53.466 79.9999 51.9635C79.9946 50.4611 79.6143 48.9832 78.8928 47.6608V47.6608ZM73.506 53.413L69.3813 60.8695L38.5073 6.08708H47.1569C47.6551 6.0884 48.1443 6.21825 48.5762 6.46378C49.0081 6.70931 49.3677 7.06204 49.6195 7.48708L73.506 50.613C73.7487 51.0406 73.8762 51.5227 73.8762 52.013C73.8762 52.5033 73.7487 52.9854 73.506 53.413V53.413ZM56.9455 63.913H15.3903C14.9032 63.9127 14.4242 63.7896 13.9987 63.5553C13.5732 63.321 13.2152 62.9832 12.9585 62.5738L8.43363 54.7826H48.2035C49.0199 54.7826 49.8028 54.4619 50.3801 53.8912C50.9574 53.3204 51.2817 52.5463 51.2817 51.7391C51.2817 50.9319 50.9574 50.1578 50.3801 49.587C49.8028 49.0163 49.0199 48.6956 48.2035 48.6956H3.07763C2.53432 48.6957 2.00071 48.838 1.53102 49.108C1.06132 49.378 0.672275 49.7661 0.403392 50.2329C0.134509 50.6997 -0.00462731 51.2285 0.000117412 51.7657C0.00486214 52.3028 0.153319 52.8292 0.430407 53.2913L7.72566 65.6782C8.53701 66.9737 9.6634 68.0478 11.0022 68.8027C12.3409 69.5575 13.8494 69.9691 15.3903 69.9999H56.9455C57.7619 69.9999 58.5448 69.6793 59.1221 69.1085C59.6994 68.5377 60.0237 67.7636 60.0237 66.9564C60.0237 66.1493 59.6994 65.3751 59.1221 64.8044C58.5448 64.2336 57.7619 63.913 56.9455 63.913ZM9.23396 44.6478H42.7859C43.3253 44.653 43.8567 44.518 44.3267 44.2563C44.7967 43.9946 45.1889 43.6153 45.464 43.1565C45.7341 42.6939 45.8763 42.169 45.8763 41.6348C45.8763 41.1005 45.7341 40.5757 45.464 40.113L28.9034 11.2914C28.6348 10.8314 28.2492 10.4489 27.7848 10.182C27.3204 9.91503 26.7934 9.77288 26.2562 9.76968C25.719 9.77288 25.192 9.91503 24.7276 10.182C24.2632 10.4489 23.8776 10.8314 23.609 11.2914L6.70986 40.0826C6.4397 40.5453 6.29747 41.0701 6.29747 41.6043C6.29747 42.1386 6.4397 42.6634 6.70986 43.1261C6.96762 43.5688 7.33394 43.9402 7.77505 44.2062C8.21616 44.4721 8.71787 44.624 9.23396 44.6478ZM26.1023 18.9305L37.3992 38.5609H14.7131L26.1023 18.9305Z" fill="url(#paint0_linear_12_7)"/>
<defs>
<linearGradient id="paint0_linear_12_7" x1="40" y1="0" x2="40" y2="70" gradientUnits="userSpaceOnUse">
<stop stop-color="#B132FF"/>
<stop offset="1" stop-color="#FF3232" stop-opacity="0"/>
</linearGradient>
</defs>
</svg>
